<svg width="55" height="55" viewBox="0 0 55 55" fill="none" xmlns="http://www.w3.org/2000/svg">
<g clip-path="url(#clip0_262_3169)">
<path d="M55 27.5C55 12.3122 42.6878 0 27.5 0C12.3122 0 0 12.3122 0 27.5C0 42.6878 12.3122 55 27.5 55C42.6878 55 55 42.6878 55 27.5Z" fill="#EEF5FF"/>
<path d="M40.8707 16.9952H39.9158V14.1306C39.9158 13.6055 39.4861 13.1758 38.9609 13.1758C38.4358 13.1758 38.0061 13.6055 38.0061 14.1306V16.9952H32.2769V14.1306C32.2769 13.6055 31.8472 13.1758 31.322 13.1758C30.7969 13.1758 30.3672 13.6055 30.3672 14.1306V16.9952H24.638V14.1306C24.638 13.6055 24.2083 13.1758 23.6832 13.1758C23.158 13.1758 22.7283 13.6055 22.7283 14.1306V16.9952H16.9991V14.1306C16.9991 13.6055 16.5694 13.1758 16.0443 13.1758C15.5191 13.1758 15.0894 13.6055 15.0894 14.1306V16.9952H14.1345C13.6094 16.9952 13.1797 17.4249 13.1797 17.9501V40.8667C13.1797 41.3919 13.6094 41.8216 14.1345 41.8216H40.8707C41.3958 41.8216 41.8255 41.3919 41.8255 40.8667V17.9501C41.8255 17.4249 41.3958 16.9952 40.8707 16.9952ZM39.9158 18.9049V22.7244H15.0894V18.9049H39.9158ZM15.0894 39.9119V24.6341H39.9158V39.9119H15.0894Z" fill="#377DFF"/>
<path d="M29.4089 27.5H28.9314C28.4063 27.5 27.9766 27.9297 27.9766 28.4549C27.9766 28.98 28.4063 29.4097 28.9314 29.4097H29.4089C29.934 29.4097 30.3637 28.98 30.3637 28.4549C30.3637 27.9297 29.934 27.5 29.4089 27.5Z" fill="#599FFF"/>
<path d="M33.2292 27.5H32.7517C32.2266 27.5 31.7969 27.9297 31.7969 28.4549C31.7969 28.98 32.2266 29.4097 32.7517 29.4097H33.2292C33.7543 29.4097 34.184 28.98 34.184 28.4549C34.184 27.9297 33.7543 27.5 33.2292 27.5Z" fill="#599FFF"/>
<path d="M36.572 29.4097H37.0495C37.5747 29.4097 38.0043 28.98 38.0043 28.4549C38.0043 27.9297 37.5747 27.5 37.0495 27.5H36.572C36.0469 27.5 35.6172 27.9297 35.6172 28.4549C35.6172 28.98 36.0469 29.4097 36.572 29.4097Z" fill="#599FFF"/>
<path d="M29.4089 31.3203H28.9314C28.4063 31.3203 27.9766 31.75 27.9766 32.2752C27.9766 32.8003 28.4063 33.23 28.9314 33.23H29.4089C29.934 33.23 30.3637 32.8003 30.3637 32.2752C30.3637 31.75 29.934 31.3203 29.4089 31.3203Z" fill="#599FFF"/>
<path d="M33.2292 31.3203H32.7517C32.2266 31.3203 31.7969 31.75 31.7969 32.2752C31.7969 32.8003 32.2266 33.23 32.7517 33.23H33.2292C33.7543 33.23 34.184 32.8003 34.184 32.2752C34.184 31.75 33.7543 31.3203 33.2292 31.3203Z" fill="#599FFF"/>
<path d="M37.0495 31.3203H36.572C36.0469 31.3203 35.6172 31.75 35.6172 32.2752C35.6172 32.8003 36.0469 33.23 36.572 33.23H37.0495C37.5747 33.23 38.0043 32.8003 38.0043 32.2752C38.0043 31.75 37.5747 31.3203 37.0495 31.3203Z" fill="#599FFF"/>
<path d="M29.4089 35.1406H28.9314C28.4063 35.1406 27.9766 35.5703 27.9766 36.0955C27.9766 36.6207 28.4063 37.0503 28.9314 37.0503H29.4089C29.934 37.0503 30.3637 36.6207 30.3637 36.0955C30.3637 35.5703 29.934 35.1406 29.4089 35.1406Z" fill="#599FFF"/>
<path d="M33.2292 35.1406H32.7517C32.2266 35.1406 31.7969 35.5703 31.7969 36.0955C31.7969 36.6207 32.2266 37.0503 32.7517 37.0503H33.2292C33.7543 37.0503 34.184 36.6207 34.184 36.0955C34.184 35.5703 33.7543 35.1406 33.2292 35.1406Z" fill="#599FFF"/>
<path d="M37.0495 35.1406H36.572C36.0469 35.1406 35.6172 35.5703 35.6172 36.0955C35.6172 36.6207 36.0469 37.0503 36.572 37.0503H37.0495C37.5747 37.0503 38.0043 36.6207 38.0043 36.0955C38.0043 35.5703 37.5747 35.1406 37.0495 35.1406Z" fill="#599FFF"/>
<path d="M21.7396 27.5085C21.3767 27.1743 20.8229 27.1743 20.4505 27.5085C19.8681 28.0336 16.9844 30.774 16.9844 32.9511C16.9844 35.3382 18.8273 37.2862 21.0903 37.2862C23.3533 37.2862 25.1962 35.3382 25.1962 32.9511C25.1962 30.774 22.3125 28.0336 21.73 27.5085H21.7396Z" fill="#599FFF"/>
</g>
<defs>
<clipPath id="clip0_262_3169">
<rect width="55" height="55" fill="white"/>
</clipPath>
</defs>
</svg>
