<svg width="56" height="56" viewBox="0 0 56 56" fill="none" xmlns="http://www.w3.org/2000/svg">
<rect width="56" height="56" rx="7" fill="#84BF4A"/>
<path d="M37.275 38.5C34.8444 38.5 32.4431 37.9703 30.0708 36.911C27.6986 35.8517 25.5403 34.3494 23.5958 32.4042C21.6514 30.4589 20.1495 28.3006 19.0902 25.9292C18.0308 23.5577 17.5008 21.1563 17.5 18.725C17.5 18.375 17.6167 18.0833 17.85 17.85C18.0833 17.6167 18.375 17.5 18.725 17.5H23.45C23.7222 17.5 23.9653 17.5926 24.1792 17.7777C24.3931 17.9628 24.5194 18.1813 24.5583 18.4333L25.3167 22.5167C25.3556 22.8278 25.3458 23.0903 25.2875 23.3042C25.2292 23.5181 25.1222 23.7028 24.9667 23.8583L22.1375 26.7167C22.5264 27.4361 22.988 28.1311 23.5223 28.8015C24.0567 29.4719 24.6451 30.1187 25.2875 30.7417C25.8903 31.3444 26.5222 31.9037 27.1833 32.4193C27.8444 32.935 28.5444 33.4063 29.2833 33.8333L32.025 31.0917C32.2 30.9167 32.4287 30.7856 32.711 30.6985C32.9933 30.6114 33.2702 30.5869 33.5417 30.625L37.5667 31.4417C37.8389 31.5194 38.0625 31.6606 38.2375 31.8652C38.4125 32.0697 38.5 32.298 38.5 32.55V37.275C38.5 37.625 38.3833 37.9167 38.15 38.15C37.9167 38.3833 37.625 38.5 37.275 38.5Z" fill="white"/>
</svg>
