<svg width="55" height="55" viewBox="0 0 55 55" fill="none" xmlns="http://www.w3.org/2000/svg">
<g clip-path="url(#clip0_262_3182)">
<path d="M55 27.5C55 12.3122 42.6878 0 27.5 0C12.3122 0 0 12.3122 0 27.5C0 42.6878 12.3122 55 27.5 55C42.6878 55 55 42.6878 55 27.5Z" fill="#EEF5FF"/>
<path d="M31.3221 13.1758H14.1345C13.6094 13.1758 13.1797 13.6055 13.1797 14.1306V38.0022C13.1797 38.5273 13.6094 38.957 14.1345 38.957H24.638C25.1632 38.957 25.5929 38.5273 25.5929 38.0022C25.5929 37.477 25.1632 37.0473 24.638 37.0473H15.0894V22.161L16.3212 23.3928C16.5026 23.5742 16.7413 23.6697 16.9991 23.6697H21.7734V25.5794C21.7734 26.1046 22.2031 26.5343 22.7283 26.5343C23.2535 26.5343 23.6832 26.1046 23.6832 25.5794V23.6697H28.4575C28.7153 23.6697 28.954 23.5647 29.1354 23.3928L30.3672 22.161V28.4536C30.3672 28.9787 30.7969 29.4084 31.3221 29.4084C31.8472 29.4084 32.2769 28.9787 32.2769 28.4536V14.1306C32.2769 13.6055 31.8472 13.1758 31.3221 13.1758ZM28.066 21.7695H23.6832V19.8598C23.6832 19.3346 23.2535 18.9049 22.7283 18.9049C22.2031 18.9049 21.7734 19.3346 21.7734 19.8598V21.7695H17.3906L15.0894 19.4683V15.0855H30.3672V19.4683L28.066 21.7695Z" fill="#377DFF"/>
<path d="M20.8134 31.3203H16.9939C16.4688 31.3203 16.0391 31.75 16.0391 32.2752C16.0391 32.8003 16.4688 33.23 16.9939 33.23H20.8134C21.3385 33.23 21.7682 32.8003 21.7682 32.2752C21.7682 31.75 21.3385 31.3203 20.8134 31.3203Z" fill="#377DFF"/>
<path d="M20.8134 34.1836H16.9939C16.4688 34.1836 16.0391 34.6133 16.0391 35.1385C16.0391 35.6636 16.4688 36.0933 16.9939 36.0933H20.8134C21.3385 36.0933 21.7682 35.6636 21.7682 35.1385C21.7682 34.6133 21.3385 34.1836 20.8134 34.1836Z" fill="#377DFF"/>
<path d="M26.5469 30.3633V41.8216H41.8246V30.3633H26.5469ZM39.0651 35.1758L34.7682 38.5178C34.5964 38.6515 34.3863 38.7183 34.1858 38.7183C33.9852 38.7183 33.7752 38.6515 33.6033 38.5178L29.3064 35.1758C28.8863 34.8511 28.8194 34.2496 29.1345 33.839C29.4592 33.4188 30.0608 33.3424 30.4714 33.6767L34.1858 36.5603L37.9002 33.6767C38.3108 33.352 38.9123 33.4284 39.237 33.839C39.5616 34.2591 39.4852 34.8511 39.0651 35.1758Z" fill="#599FFF"/>
</g>
<defs>
<clipPath id="clip0_262_3182">
<rect width="55" height="55" fill="white"/>
</clipPath>
</defs>
</svg>
