<svg width="56" height="56" viewBox="0 0 56 56" fill="none" xmlns="http://www.w3.org/2000/svg">
<rect width="56" height="56" rx="7" fill="#84BF4A"/>
<path d="M29.8785 38.634C32.7109 36.1412 37.75 31.0485 37.75 26.375C37.75 23.7891 36.7228 21.3092 34.8943 19.4807C33.0658 17.6522 30.5859 16.625 28 16.625C25.4141 16.625 22.9342 17.6522 21.1057 19.4807C19.2772 21.3092 18.25 23.7891 18.25 26.375C18.25 31.0485 23.2875 36.1412 26.1215 38.634C26.6384 39.0954 27.3071 39.3504 28 39.3504C28.6929 39.3504 29.3616 39.0954 29.8785 38.634ZM24.75 26.375C24.75 25.513 25.0924 24.6864 25.7019 24.0769C26.3114 23.4674 27.138 23.125 28 23.125C28.862 23.125 29.6886 23.4674 30.2981 24.0769C30.9076 24.6864 31.25 25.513 31.25 26.375C31.25 27.237 30.9076 28.0636 30.2981 28.6731C29.6886 29.2826 28.862 29.625 28 29.625C27.138 29.625 26.3114 29.2826 25.7019 28.6731C25.0924 28.0636 24.75 27.237 24.75 26.375Z" fill="white"/>
</svg>
