<svg width="55" height="55" viewBox="0 0 55 55" fill="none" xmlns="http://www.w3.org/2000/svg">
<g clip-path="url(#clip0_277_663)">
<path d="M55 27.5C55 12.3122 42.6878 0 27.5 0C12.3122 0 0 12.3122 0 27.5C0 42.6878 12.3122 55 27.5 55C42.6878 55 55 42.6878 55 27.5Z" fill="#EEF5FF"/>
<path d="M41.6007 40.2561L40.1398 38.5087L41.1328 36.217C41.5625 35.2335 41.3906 34.0686 40.7031 33.2379L33.8186 25.0452C33.4748 24.6441 32.8733 24.5868 32.4722 24.9306C32.0712 25.2743 32.0139 25.8759 32.3577 26.2769L39.2422 34.4601C39.4714 34.737 39.5287 35.1285 39.3854 35.4531L38.7648 36.8759L31.0781 27.7188C30.7439 27.3177 30.1424 27.2604 29.7318 27.6042C29.3307 27.9384 29.2735 28.5495 29.6172 28.9505L34.0191 34.1927H28.4618V33.2379C28.4618 32.7127 28.0321 32.283 27.507 32.283C26.9818 32.283 26.5521 32.7127 26.5521 33.2379V34.1927H20.9948L25.3967 28.9505C25.7405 28.5495 25.6832 27.9479 25.2821 27.6042C24.8811 27.27 24.2795 27.3177 23.9358 27.7188L16.2492 36.8759L15.6285 35.4531C15.4853 35.1285 15.5426 34.737 15.7717 34.4601L22.6563 26.2674C23 25.8663 22.9427 25.2648 22.5417 24.921C22.1406 24.5773 21.5391 24.6346 21.1953 25.0356L14.3108 33.2379C13.6233 34.0686 13.461 35.2335 13.8811 36.217L14.8742 38.5087L13.4132 40.2561C13.0695 40.6571 13.1268 41.2587 13.5278 41.6024C13.7092 41.7552 13.9288 41.8221 14.1389 41.8221C14.4158 41.8221 14.6832 41.7075 14.8742 41.4783L19.4002 36.0929H26.5617V37.0478C26.5617 37.5729 26.9913 38.0026 27.5165 38.0026C28.0417 38.0026 28.4714 37.5729 28.4714 37.0478V36.0929H35.6328L40.1589 41.4783C40.3498 41.7075 40.6172 41.8221 40.8941 41.8221C41.1137 41.8221 41.3238 41.7457 41.5052 41.6024C41.9063 41.2682 41.9636 40.6571 41.6198 40.2561H41.6007Z" fill="#377DFF"/>
<path d="M25.9097 25.4132H29.7292C30.7795 25.4132 31.6389 24.5538 31.6389 23.5035V19.684C31.6389 18.6337 30.7795 17.7743 29.7292 17.7743H29.7005L30.1684 15.4444C30.2925 14.8429 30.1302 14.2222 29.7483 13.7448C29.3568 13.2674 28.7839 13 28.1632 13H27.4757C26.8646 13 26.2821 13.2769 25.8906 13.7448C25.4991 14.2222 25.3464 14.8429 25.4705 15.4444L25.9384 17.7743H25.9097C24.8594 17.7743 24 18.6337 24 19.684V23.5035C24 24.5538 24.8594 25.4132 25.9097 25.4132ZM28.2969 22.5486H27.342C26.8168 22.5486 26.3872 22.1189 26.3872 21.5937C26.3872 21.0686 26.8168 20.6389 27.342 20.6389H28.2969C28.822 20.6389 29.2517 21.0686 29.2517 21.5937C29.2517 22.1189 28.822 22.5486 28.2969 22.5486Z" fill="#599FFF"/>
</g>
<defs>
<clipPath id="clip0_277_663">
<rect width="55" height="55" fill="white"/>
</clipPath>
</defs>
</svg>
