<svg width="56" height="56" viewBox="0 0 56 56" fill="none" xmlns="http://www.w3.org/2000/svg">
<rect width="56" height="56" rx="7" fill="#84BF4A"/>
<path d="M16 25.6016V35.2016C16 35.8381 16.2529 36.4485 16.7029 36.8986C17.153 37.3487 17.7635 37.6016 18.4 37.6016H37.6C38.2365 37.6016 38.847 37.3487 39.2971 36.8986C39.7471 36.4485 40 35.8381 40 35.2016V25.6016L28 30.4016L16 25.6016Z" fill="white"/>
<path d="M18.4 18.3984C17.7635 18.3984 17.153 18.6513 16.7029 19.1014C16.2529 19.5515 16 20.1619 16 20.7984V23.1984L28 27.9984L40 23.1984V20.7984C40 20.1619 39.7471 19.5515 39.2971 19.1014C38.847 18.6513 38.2365 18.3984 37.6 18.3984H18.4Z" fill="white"/>
</svg>
