<svg width="55" height="55" viewBox="0 0 55 55" fill="none" xmlns="http://www.w3.org/2000/svg">
<g clip-path="url(#clip0_277_693)">
<path d="M55 27.5C55 12.3122 42.6878 0 27.5 0C12.3122 0 0 12.3122 0 27.5C0 42.6878 12.3122 55 27.5 55C42.6878 55 55 42.6878 55 27.5Z" fill="#EEF5FF"/>
<path d="M27.5026 13.1758C19.6059 13.1758 13.1797 19.602 13.1797 27.4987C13.1797 35.3954 19.6059 41.8216 27.5026 41.8216C35.3993 41.8216 41.8255 35.3954 41.8255 27.4987C41.8255 19.602 35.3993 13.1758 27.5026 13.1758ZM36.9175 35.5673L34.9314 33.5812C34.559 33.2088 33.9575 33.2088 33.5851 33.5812C33.2127 33.9536 33.2127 34.5551 33.5851 34.9275L35.5712 36.9136C33.6233 38.5846 31.1693 39.6541 28.4575 39.8641V37.0473C28.4575 36.5221 28.0278 36.0924 27.5026 36.0924C26.9774 36.0924 26.5477 36.5221 26.5477 37.0473V39.8641C23.8455 39.6541 21.3819 38.5846 19.434 36.9136L21.4201 34.9275C21.7925 34.5551 21.7925 33.9536 21.4201 33.5812C21.0477 33.2088 20.4462 33.2088 20.0738 33.5812L18.0877 35.5673C16.4167 33.6194 15.3472 31.1654 15.1372 28.4536H17.954C18.4792 28.4536 18.9089 28.0239 18.9089 27.4987C18.9089 26.9735 18.4792 26.5438 17.954 26.5438H15.1372C15.3472 23.8416 16.4167 21.378 18.0877 19.4301L20.0738 21.4162C20.2648 21.6072 20.5035 21.6931 20.7517 21.6931C21 21.6931 21.2387 21.5977 21.4297 21.4162C21.8021 21.0438 21.8021 20.4423 21.4297 20.0699L19.4436 18.0838C21.3915 16.4128 23.8455 15.3433 26.5573 15.1332V17.9501C26.5573 18.4753 26.987 18.9049 27.5122 18.9049C28.0373 18.9049 28.467 18.4753 28.467 17.9501V15.1332C31.1693 15.3433 33.6328 16.4128 35.5807 18.0838L33.5946 20.0699C33.2222 20.4423 33.2222 21.0438 33.5946 21.4162C33.7856 21.6072 34.0243 21.6931 34.2726 21.6931C34.5208 21.6931 34.7595 21.5977 34.9505 21.4162L36.9366 19.4301C38.6076 21.378 39.6771 23.832 39.8872 26.5438H37.0703C36.5451 26.5438 36.1155 26.9735 36.1155 27.4987C36.1155 28.0239 36.5451 28.4536 37.0703 28.4536H39.8872C39.6771 31.1558 38.6076 33.6194 36.9366 35.5673H36.9175Z" fill="#377DFF"/>
<path d="M25.8281 27.5764C25.8281 28.5885 26.5825 29.4097 27.4991 29.4097C28.4158 29.4097 29.1701 28.5885 29.1701 27.5764C29.1701 27.0035 28.3299 25.8863 27.4991 25.0078C26.6684 25.8863 25.8281 27.0035 25.8281 27.5764Z" fill="#599FFF"/>
<path d="M27.4983 19.8594C23.2873 19.8594 19.8594 23.2873 19.8594 27.4983C19.8594 31.7092 23.2873 35.1372 27.4983 35.1372C31.7092 35.1372 35.1372 31.7092 35.1372 27.4983C35.1372 23.2873 31.7092 19.8594 27.4983 19.8594ZM27.4983 31.3177C25.5217 31.3177 23.9175 29.6372 23.9175 27.5747C23.9175 25.7031 26.3715 23.4115 26.8585 22.9627C27.2214 22.638 27.7752 22.638 28.138 22.9627C28.625 23.4019 31.079 25.7031 31.079 27.5747C31.079 29.6372 29.4748 31.3177 27.4983 31.3177Z" fill="#599FFF"/>
</g>
<defs>
<clipPath id="clip0_277_693">
<rect width="55" height="55" fill="white"/>
</clipPath>
</defs>
</svg>
