<svg width="72" height="72" viewBox="0 0 72 72" fill="none" xmlns="http://www.w3.org/2000/svg">
<g clip-path="url(#clip0_270_1010)">
<path d="M18.8752 18.8748C28.3356 9.41444 43.6654 9.41444 53.1257 18.8748C62.586 28.3351 62.586 43.6649 53.1257 53.1252C43.6654 62.5856 28.3356 62.5856 18.8752 53.1252C9.41493 43.6649 9.41493 28.3351 18.8752 18.8748ZM26.7957 30.7865L37.0087 30.5724L24.3995 43.1816C23.4811 44.1 23.4811 45.5777 24.3995 46.4961L25.5044 47.601C26.4228 48.5194 27.9005 48.5194 28.8189 47.601L41.4281 34.9918L41.214 45.2048C41.1864 46.5168 42.2429 47.601 43.5549 47.601L45.0672 47.5941C46.3654 47.5941 47.415 46.5445 47.4081 45.2532L47.415 26.9333C47.415 25.6351 46.3654 24.5855 45.0741 24.5924L26.7404 24.5855C25.4422 24.5855 24.3926 25.6351 24.3995 26.9264L24.3926 28.4387C24.3995 29.7576 25.4837 30.8141 26.7957 30.7865Z" fill="white"/>
</g>
<defs>
<clipPath id="clip0_270_1010">
<rect width="50" height="50" fill="white" transform="translate(0.648438 36) rotate(-45)"/>
</clipPath>
</defs>
</svg>
