<svg width="55" height="55" viewBox="0 0 55 55" fill="none" xmlns="http://www.w3.org/2000/svg">
<g clip-path="url(#clip0_262_3162)">
<path d="M55 27.5C55 12.3122 42.6878 0 27.5 0C12.3122 0 0 12.3122 0 27.5C0 42.6878 12.3122 55 27.5 55C42.6878 55 55 42.6878 55 27.5Z" fill="#EEF5FF"/>
<path d="M40.8689 34.1836H23.6814C23.1563 34.1836 22.7266 34.6133 22.7266 35.1385V40.8676C22.7266 41.3928 23.1563 41.8225 23.6814 41.8225H40.8689C41.3941 41.8225 41.8238 41.3928 41.8238 40.8676V35.1385C41.8238 34.6133 41.3941 34.1836 40.8689 34.1836ZM39.9141 39.9128H24.6363V36.0933H26.546V37.0482C26.546 37.5733 26.9757 38.003 27.5009 38.003C28.026 38.003 28.4557 37.5733 28.4557 37.0482V36.0933H31.3203V37.0482C31.3203 37.5733 31.75 38.003 32.2752 38.003C32.8004 38.003 33.23 37.5733 33.23 37.0482V36.0933H36.0946V37.0482C36.0946 37.5733 36.5243 38.003 37.0495 38.003C37.5747 38.003 38.0043 37.5733 38.0043 37.0482V36.0933H39.9141V39.9128Z" fill="#377DFF"/>
<path d="M23.6814 32.273H37.0495C37.5746 32.273 38.0043 31.8433 38.0043 31.3181V18.9049C38.0043 18.6471 37.8993 18.4084 37.7274 18.227L32.9531 13.4527C32.7717 13.2713 32.533 13.1758 32.2752 13.1758H23.6814C23.1562 13.1758 22.7266 13.6055 22.7266 14.1306V31.3181C22.7266 31.8433 23.1562 32.273 23.6814 32.273ZM32.9149 16.1168L35.0634 18.2652L33.1441 18.5898C32.934 18.6185 32.7908 18.523 32.7335 18.4562C32.6667 18.3893 32.5616 18.2556 32.5998 18.036L32.9245 16.1168H32.9149ZM24.6363 15.0855H31.1484L30.7092 17.7209C30.5851 18.4753 30.8333 19.2582 31.3776 19.8025C31.8264 20.2513 32.4375 20.4996 33.0677 20.4996C33.2014 20.4996 33.3255 20.49 33.4592 20.4709L36.0946 20.0317V30.3633H24.6363V15.0855Z" fill="#377DFF"/>
<path d="M28.4566 27.5H27.5017C26.9766 27.5 26.5469 27.9297 26.5469 28.4549C26.5469 28.98 26.9766 29.4097 27.5017 29.4097H28.4566C28.9818 29.4097 29.4115 28.98 29.4115 28.4549C29.4115 27.9297 28.9818 27.5 28.4566 27.5Z" fill="#377DFF"/>
<path d="M33.23 27.5H32.2752C31.75 27.5 31.3203 27.9297 31.3203 28.4549C31.3203 28.98 31.75 29.4097 32.2752 29.4097H33.23C33.7552 29.4097 34.1849 28.98 34.1849 28.4549C34.1849 27.9297 33.7552 27.5 33.23 27.5Z" fill="#377DFF"/>
<path d="M19.8637 13.1775H14.1345C13.6094 13.1775 13.1797 13.6072 13.1797 14.1324V40.8685C13.1797 41.3937 13.6094 41.8233 14.1345 41.8233H19.8637C20.3889 41.8233 20.8186 41.3937 20.8186 40.8685V38.0039H18.9089C18.3837 38.0039 17.954 37.5742 17.954 37.049C17.954 36.5239 18.3837 36.0942 18.9089 36.0942H20.8186V31.635H18.9089C18.3837 31.635 17.954 31.2053 17.954 30.6801C17.954 30.1549 18.3837 29.7253 18.9089 29.7253H20.8186V25.2661H18.9089C18.3837 25.2661 17.954 24.8364 17.954 24.3112C17.954 23.786 18.3837 23.3563 18.9089 23.3563H20.8186V18.8971H18.9089C18.3837 18.8971 17.954 18.4674 17.954 17.9423C17.954 17.4171 18.3837 16.9874 18.9089 16.9874H20.8186V14.1228C20.8186 13.5977 20.3889 13.168 19.8637 13.168V13.1775Z" fill="#599FFF"/>
</g>
<defs>
<clipPath id="clip0_262_3162">
<rect width="55" height="55" fill="white"/>
</clipPath>
</defs>
</svg>
